<?xml version="1.0" encoding="UTF-8"?>
<svg xmlns="http://www.w3.org/2000/svg" xmlns:xlink="http://www.w3.org/1999/xlink" width="251.617pt" height="258.511pt" viewBox="0 0 251.617 258.511">
<path fill-rule="nonzero" fill="rgb(100%, 100%, 100%)" fill-opacity="1" d="M 33.078125 194.53125 C 33.078125 195.476562 33.234375 196.359375 33.539062 197.183594 C 33.84375 198.011719 34.269531 198.730469 34.816406 199.347656 C 35.367188 199.960938 36.027344 200.449219 36.796875 200.8125 C 37.566406 201.171875 38.425781 201.351562 39.367188 201.351562 C 40.308594 201.351562 41.203125 201.171875 42.042969 200.8125 C 42.886719 200.449219 43.625 199.960938 44.265625 199.347656 C 44.902344 198.730469 45.410156 198.011719 45.785156 197.183594 C 46.164062 196.359375 46.351562 195.476562 46.351562 194.53125 C 46.351562 193.625 46.15625 192.757812 45.769531 191.929688 C 45.378906 191.105469 44.863281 190.378906 44.214844 189.75 C 43.566406 189.125 42.824219 188.628906 41.984375 188.261719 C 41.148438 187.898438 40.277344 187.714844 39.367188 187.714844 C 38.425781 187.714844 37.566406 187.894531 36.796875 188.253906 C 36.027344 188.613281 35.367188 189.101562 34.816406 189.71875 C 34.269531 190.332031 33.84375 191.054688 33.539062 191.878906 C 33.234375 192.707031 33.078125 193.589844 33.078125 194.53125 M 40.398438 207.269531 C 41.582031 207.226562 42.578125 207.027344 43.382812 206.671875 C 44.1875 206.316406 44.824219 205.78125 45.292969 205.058594 C 45.765625 204.339844 46.085938 203.421875 46.261719 202.316406 C 46.433594 201.207031 46.484375 199.875 46.417969 198.324219 C 46.21875 198.878906 45.890625 199.414062 45.4375 199.929688 C 44.980469 200.445312 44.441406 200.898438 43.816406 201.292969 C 43.1875 201.6875 42.492188 202 41.726562 202.230469 C 40.964844 202.464844 40.175781 202.582031 39.367188 202.582031 C 38.257812 202.582031 37.230469 202.371094 36.289062 201.949219 C 35.347656 201.527344 34.53125 200.953125 33.84375 200.21875 C 33.15625 199.488281 32.621094 198.632812 32.234375 197.660156 C 31.84375 196.683594 31.648438 195.640625 31.648438 194.53125 C 31.648438 193.425781 31.84375 192.382812 32.234375 191.40625 C 32.621094 190.429688 33.15625 189.578125 33.84375 188.84375 C 34.53125 188.113281 35.347656 187.535156 36.289062 187.117188 C 37.230469 186.695312 38.257812 186.484375 39.367188 186.484375 C 40.277344 186.484375 41.125 186.628906 41.917969 186.914062 C 42.710938 187.203125 43.414062 187.5625 44.03125 187.988281 C 44.644531 188.414062 45.160156 188.878906 45.570312 189.378906 C 45.980469 189.875 46.261719 190.332031 46.417969 190.742188 C 46.417969 189.289062 46.46875 188.222656 46.574219 187.539062 C 46.679688 186.855469 46.949219 186.515625 47.382812 186.515625 C 47.515625 186.515625 47.605469 186.589844 47.65625 186.742188 C 47.707031 186.890625 47.738281 187.070312 47.757812 187.28125 C 47.773438 187.492188 47.773438 187.714844 47.765625 187.945312 C 47.753906 188.179688 47.75 188.378906 47.75 188.546875 L 47.75 201.285156 C 47.75 202.359375 47.566406 203.347656 47.207031 204.253906 C 46.847656 205.15625 46.351562 205.9375 45.71875 206.597656 C 45.085938 207.257812 44.332031 207.773438 43.457031 208.144531 C 42.582031 208.515625 41.628906 208.699219 40.597656 208.699219 C 40.34375 208.699219 40.007812 208.683594 39.601562 208.644531 C 39.1875 208.605469 38.792969 208.539062 38.410156 208.453125 C 38.027344 208.363281 37.699219 208.242188 37.421875 208.09375 C 37.144531 207.945312 37.003906 207.757812 37.003906 207.535156 C 37.003906 207.25 37.117188 207.054688 37.335938 206.953125 C 37.558594 206.855469 37.792969 206.839844 38.035156 206.90625 C 38.457031 207.027344 38.863281 207.125 39.25 207.195312 C 39.636719 207.269531 40.019531 207.292969 40.398438 207.269531 "/>
<path fill-rule="nonzero" fill="rgb(100%, 100%, 100%)" fill-opacity="1" d="M 63.761719 190.609375 C 63.839844 190.34375 64.015625 190.019531 64.285156 189.632812 C 64.558594 189.253906 64.902344 188.867188 65.324219 188.480469 C 65.746094 188.089844 66.238281 187.730469 66.796875 187.398438 C 67.355469 187.066406 67.976562 186.816406 68.652344 186.648438 C 68.816406 186.605469 69.03125 186.570312 69.292969 186.542969 C 69.550781 186.515625 69.828125 186.496094 70.125 186.492188 C 70.417969 186.488281 70.707031 186.496094 70.996094 186.523438 C 71.285156 186.550781 71.546875 186.605469 71.785156 186.683594 C 72.023438 186.761719 72.214844 186.863281 72.359375 186.992188 C 72.503906 187.117188 72.574219 187.28125 72.574219 187.480469 C 72.574219 187.679688 72.5 187.839844 72.351562 187.964844 C 72.203125 188.085938 72.03125 188.144531 71.84375 188.144531 C 71.734375 188.144531 71.640625 188.128906 71.5625 188.097656 C 71.484375 188.0625 71.394531 188.023438 71.296875 187.980469 C 71.195312 187.9375 71.074219 187.894531 70.929688 187.855469 C 70.785156 187.816406 70.589844 187.792969 70.347656 187.78125 C 69.78125 187.746094 69.183594 187.824219 68.550781 188.011719 C 67.964844 188.191406 67.402344 188.453125 66.871094 188.804688 C 66.339844 189.152344 65.859375 189.570312 65.433594 190.058594 C 65.007812 190.546875 64.648438 191.09375 64.351562 191.707031 C 64.058594 192.316406 63.863281 192.96875 63.761719 193.667969 Z M 62.433594 186.78125 C 62.433594 186.5625 62.542969 186.449219 62.765625 186.449219 C 62.875 186.449219 62.988281 186.476562 63.105469 186.535156 C 63.222656 186.589844 63.328125 186.691406 63.429688 186.839844 C 63.53125 186.992188 63.609375 187.191406 63.671875 187.449219 C 63.730469 187.703125 63.761719 188.035156 63.761719 188.445312 L 63.761719 201.882812 C 63.761719 202.070312 63.699219 202.230469 63.570312 202.355469 C 63.445312 202.484375 63.285156 202.546875 63.097656 202.546875 C 62.898438 202.546875 62.738281 202.484375 62.613281 202.355469 C 62.492188 202.230469 62.433594 202.070312 62.433594 201.882812 Z M 62.433594 186.78125 "/>
<path fill-rule="nonzero" fill="rgb(100%, 100%, 100%)" fill-opacity="1" d="M 99.550781 201.832031 C 99.550781 202.078125 99.484375 202.261719 99.359375 202.390625 C 99.230469 202.519531 99.082031 202.582031 98.917969 202.582031 C 98.695312 202.582031 98.523438 202.519531 98.402344 202.390625 C 98.28125 202.261719 98.21875 202.078125 98.21875 201.832031 L 98.21875 194.597656 C 98.21875 194.410156 98.285156 194.253906 98.410156 194.125 C 98.539062 193.996094 98.695312 193.933594 98.886719 193.933594 C 99.082031 193.933594 99.246094 193.996094 99.367188 194.125 C 99.488281 194.253906 99.550781 194.410156 99.550781 194.597656 Z M 99.550781 195.597656 C 99.550781 195.785156 99.488281 195.945312 99.367188 196.070312 C 99.246094 196.199219 99.082031 196.261719 98.886719 196.261719 C 98.695312 196.261719 98.539062 196.199219 98.410156 196.070312 C 98.285156 195.945312 98.21875 195.785156 98.21875 195.597656 L 98.21875 188.511719 C 98.21875 188.101562 98.25 187.769531 98.3125 187.515625 C 98.371094 187.257812 98.453125 187.058594 98.550781 186.90625 C 98.652344 186.757812 98.761719 186.65625 98.875 186.601562 C 98.992188 186.542969 99.105469 186.515625 99.21875 186.515625 C 99.4375 186.515625 99.550781 186.628906 99.550781 186.847656 Z M 98.152344 194.53125 C 98.152344 193.589844 97.980469 192.707031 97.636719 191.878906 C 97.292969 191.054688 96.824219 190.332031 96.222656 189.71875 C 95.625 189.101562 94.921875 188.613281 94.113281 188.253906 C 93.300781 187.894531 92.433594 187.714844 91.5 187.714844 C 90.570312 187.714844 89.699219 187.894531 88.890625 188.253906 C 88.082031 188.613281 87.375 189.101562 86.777344 189.71875 C 86.179688 190.332031 85.707031 191.054688 85.363281 191.878906 C 85.019531 192.707031 84.847656 193.589844 84.847656 194.53125 C 84.847656 195.476562 85.019531 196.359375 85.363281 197.183594 C 85.707031 198.011719 86.179688 198.730469 86.777344 199.347656 C 87.375 199.960938 88.082031 200.449219 88.890625 200.8125 C 89.699219 201.171875 90.570312 201.351562 91.5 201.351562 C 92.433594 201.351562 93.300781 201.171875 94.113281 200.8125 C 94.921875 200.449219 95.625 199.960938 96.222656 199.347656 C 96.824219 198.730469 97.292969 198.011719 97.636719 197.183594 C 97.980469 196.359375 98.152344 195.476562 98.152344 194.53125 M 99.21875 194.53125 C 99.21875 195.640625 99.023438 196.683594 98.636719 197.660156 C 98.246094 198.636719 97.710938 199.488281 97.023438 200.21875 C 96.335938 200.953125 95.519531 201.527344 94.578125 201.949219 C 93.636719 202.371094 92.609375 202.582031 91.5 202.582031 C 90.390625 202.582031 89.351562 202.371094 88.375 201.949219 C 87.398438 201.527344 86.546875 200.953125 85.8125 200.21875 C 85.082031 199.488281 84.503906 198.636719 84.085938 197.660156 C 83.664062 196.683594 83.453125 195.640625 83.453125 194.53125 C 83.453125 193.425781 83.664062 192.382812 84.085938 191.40625 C 84.503906 190.429688 85.082031 189.578125 85.8125 188.84375 C 86.546875 188.113281 87.398438 187.535156 88.375 187.117188 C 89.351562 186.695312 90.390625 186.484375 91.5 186.484375 C 92.609375 186.484375 93.636719 186.695312 94.578125 187.117188 C 95.519531 187.535156 96.335938 188.113281 97.023438 188.84375 C 97.710938 189.578125 98.246094 190.429688 98.636719 191.40625 C 99.023438 192.382812 99.21875 193.425781 99.21875 194.53125 "/>
<path fill-rule="nonzero" fill="rgb(100%, 100%, 100%)" fill-opacity="1" d="M 128.953125 194.53125 C 128.953125 193.589844 128.789062 192.707031 128.46875 191.878906 C 128.148438 191.054688 127.703125 190.332031 127.140625 189.71875 C 126.574219 189.101562 125.898438 188.613281 125.117188 188.253906 C 124.335938 187.894531 123.484375 187.714844 122.566406 187.714844 C 121.957031 187.714844 121.355469 187.800781 120.769531 187.972656 C 120.183594 188.144531 119.625 188.386719 119.105469 188.695312 C 118.585938 189.007812 118.105469 189.375 117.667969 189.800781 C 117.230469 190.226562 116.851562 190.695312 116.527344 191.207031 C 116.207031 191.71875 115.957031 192.261719 115.78125 192.835938 C 115.601562 193.414062 115.515625 194 115.515625 194.597656 L 115.515625 190.742188 C 115.660156 190.332031 115.9375 189.875 116.355469 189.378906 C 116.769531 188.878906 117.285156 188.414062 117.898438 187.988281 C 118.515625 187.5625 119.21875 187.203125 120.011719 186.914062 C 120.804688 186.628906 121.65625 186.484375 122.566406 186.484375 C 123.675781 186.484375 124.699219 186.695312 125.640625 187.117188 C 126.585938 187.535156 127.398438 188.109375 128.085938 188.835938 C 128.773438 189.5625 129.3125 190.410156 129.699219 191.378906 C 130.085938 192.351562 130.28125 193.390625 130.28125 194.5 L 130.28125 201.851562 C 130.28125 201.90625 130.269531 201.972656 130.25 202.058594 C 130.226562 202.140625 130.191406 202.21875 130.140625 202.289062 C 130.089844 202.363281 130.019531 202.421875 129.933594 202.472656 C 129.84375 202.523438 129.738281 202.546875 129.617188 202.546875 C 129.417969 202.546875 129.253906 202.480469 129.132812 202.347656 C 129.011719 202.214844 128.953125 202.050781 128.953125 201.851562 Z M 114.183594 186.78125 C 114.183594 186.5625 114.292969 186.449219 114.515625 186.449219 C 114.628906 186.449219 114.742188 186.476562 114.855469 186.535156 C 114.972656 186.589844 115.082031 186.691406 115.179688 186.839844 C 115.28125 186.992188 115.363281 187.195312 115.421875 187.449219 C 115.484375 187.703125 115.515625 188.035156 115.515625 188.445312 L 115.515625 201.882812 C 115.515625 202.070312 115.449219 202.230469 115.324219 202.359375 C 115.195312 202.484375 115.039062 202.546875 114.847656 202.546875 C 114.648438 202.546875 114.488281 202.484375 114.367188 202.359375 C 114.246094 202.230469 114.183594 202.070312 114.183594 201.882812 Z M 114.183594 186.78125 "/>
<path fill-rule="nonzero" fill="rgb(100%, 100%, 100%)" fill-opacity="1" d="M 160.066406 201.832031 C 160.066406 202.078125 160.003906 202.261719 159.875 202.390625 C 159.75 202.519531 159.601562 202.582031 159.433594 202.582031 C 159.214844 202.582031 159.039062 202.519531 158.917969 202.390625 C 158.796875 202.261719 158.734375 202.078125 158.734375 201.832031 L 158.734375 194.597656 C 158.734375 194.410156 158.800781 194.253906 158.929688 194.125 C 159.054688 193.996094 159.214844 193.933594 159.402344 193.933594 C 159.601562 193.933594 159.761719 193.996094 159.882812 194.125 C 160.003906 194.253906 160.066406 194.410156 160.066406 194.597656 Z M 160.066406 195.597656 C 160.066406 195.785156 160.003906 195.945312 159.882812 196.070312 C 159.761719 196.199219 159.601562 196.261719 159.402344 196.261719 C 159.214844 196.261719 159.054688 196.199219 158.929688 196.070312 C 158.800781 195.945312 158.734375 195.785156 158.734375 195.597656 L 158.734375 188.511719 C 158.734375 188.101562 158.765625 187.769531 158.828125 187.515625 C 158.890625 187.257812 158.96875 187.058594 159.070312 186.90625 C 159.167969 186.757812 159.277344 186.65625 159.394531 186.601562 C 159.507812 186.542969 159.621094 186.515625 159.734375 186.515625 C 159.957031 186.515625 160.066406 186.628906 160.066406 186.847656 Z M 158.667969 194.53125 C 158.667969 193.589844 158.496094 192.707031 158.152344 191.878906 C 157.808594 191.054688 157.339844 190.332031 156.738281 189.71875 C 156.140625 189.101562 155.4375 188.613281 154.628906 188.253906 C 153.820312 187.894531 152.949219 187.714844 152.019531 187.714844 C 151.085938 187.714844 150.214844 187.894531 149.40625 188.253906 C 148.597656 188.613281 147.894531 189.101562 147.292969 189.71875 C 146.695312 190.332031 146.226562 191.054688 145.878906 191.878906 C 145.535156 192.707031 145.367188 193.589844 145.367188 194.53125 C 145.367188 195.476562 145.535156 196.359375 145.878906 197.183594 C 146.226562 198.011719 146.695312 198.730469 147.292969 199.347656 C 147.894531 199.960938 148.597656 200.449219 149.40625 200.8125 C 150.214844 201.171875 151.085938 201.351562 152.019531 201.351562 C 152.949219 201.351562 153.820312 201.171875 154.628906 200.8125 C 155.4375 200.449219 156.140625 199.960938 156.738281 199.347656 C 157.339844 198.730469 157.808594 198.011719 158.152344 197.183594 C 158.496094 196.359375 158.667969 195.476562 158.667969 194.53125 M 159.734375 194.53125 C 159.734375 195.640625 159.539062 196.683594 159.152344 197.660156 C 158.761719 198.636719 158.226562 199.488281 157.539062 200.21875 C 156.851562 200.953125 156.035156 201.527344 155.09375 201.949219 C 154.152344 202.371094 153.125 202.582031 152.019531 202.582031 C 150.90625 202.582031 149.867188 202.371094 148.890625 201.949219 C 147.914062 201.527344 147.0625 200.953125 146.328125 200.21875 C 145.597656 199.488281 145.019531 198.636719 144.601562 197.660156 C 144.179688 196.683594 143.96875 195.640625 143.96875 194.53125 C 143.96875 193.425781 144.179688 192.382812 144.601562 191.40625 C 145.019531 190.429688 145.597656 189.578125 146.328125 188.84375 C 147.0625 188.113281 147.914062 187.535156 148.890625 187.117188 C 149.867188 186.695312 150.90625 186.484375 152.019531 186.484375 C 153.125 186.484375 154.152344 186.695312 155.09375 187.117188 C 156.035156 187.535156 156.851562 188.113281 157.539062 188.84375 C 158.226562 189.578125 158.761719 190.429688 159.152344 191.40625 C 159.539062 192.382812 159.734375 193.425781 159.734375 194.53125 "/>
<path fill-rule="nonzero" fill="rgb(100%, 100%, 100%)" fill-opacity="1" d="M 188.46875 182.027344 C 188.46875 181.839844 188.535156 181.679688 188.660156 181.554688 C 188.789062 181.425781 188.945312 181.359375 189.132812 181.359375 C 189.335938 181.359375 189.496094 181.425781 189.617188 181.554688 C 189.738281 181.679688 189.800781 181.839844 189.800781 182.027344 L 189.800781 202.25 C 189.800781 202.46875 189.691406 202.582031 189.46875 202.582031 C 189.355469 202.582031 189.242188 202.554688 189.125 202.5 C 189.011719 202.441406 188.902344 202.339844 188.800781 202.191406 C 188.703125 202.042969 188.621094 201.839844 188.5625 201.582031 C 188.5 201.328125 188.46875 200.996094 188.46875 200.585938 Z M 188.46875 194.53125 C 188.46875 193.589844 188.296875 192.707031 187.945312 191.878906 C 187.597656 191.054688 187.117188 190.332031 186.507812 189.71875 C 185.898438 189.101562 185.183594 188.613281 184.371094 188.253906 C 183.554688 187.894531 182.683594 187.714844 181.75 187.714844 C 180.820312 187.714844 179.949219 187.894531 179.140625 188.253906 C 178.332031 188.613281 177.628906 189.101562 177.027344 189.71875 C 176.429688 190.332031 175.957031 191.054688 175.613281 191.878906 C 175.269531 192.707031 175.097656 193.589844 175.097656 194.53125 C 175.097656 195.476562 175.269531 196.359375 175.613281 197.183594 C 175.957031 198.011719 176.429688 198.730469 177.027344 199.347656 C 177.628906 199.960938 178.332031 200.449219 179.140625 200.808594 C 179.949219 201.171875 180.820312 201.351562 181.75 201.351562 C 182.683594 201.351562 183.554688 201.171875 184.371094 200.808594 C 185.183594 200.449219 185.898438 199.960938 186.507812 199.347656 C 187.117188 198.730469 187.597656 198.011719 187.945312 197.183594 C 188.296875 196.359375 188.46875 195.476562 188.46875 194.53125 M 189.46875 194.53125 C 189.46875 195.640625 189.273438 196.683594 188.886719 197.660156 C 188.496094 198.632812 187.960938 199.488281 187.273438 200.21875 C 186.585938 200.953125 185.769531 201.527344 184.828125 201.949219 C 183.886719 202.371094 182.859375 202.582031 181.75 202.582031 C 180.640625 202.582031 179.601562 202.371094 178.625 201.949219 C 177.648438 201.527344 176.792969 200.953125 176.0625 200.21875 C 175.332031 199.488281 174.753906 198.632812 174.335938 197.660156 C 173.914062 196.683594 173.703125 195.640625 173.703125 194.53125 C 173.703125 193.425781 173.914062 192.382812 174.335938 191.40625 C 174.753906 190.429688 175.332031 189.578125 176.0625 188.84375 C 176.792969 188.113281 177.648438 187.539062 178.625 187.117188 C 179.601562 186.695312 180.640625 186.484375 181.75 186.484375 C 182.859375 186.484375 183.886719 186.695312 184.828125 187.117188 C 185.769531 187.539062 186.585938 188.113281 187.273438 188.84375 C 187.960938 189.578125 188.496094 190.429688 188.886719 191.40625 C 189.273438 192.382812 189.46875 193.425781 189.46875 194.53125 "/>
<path fill-rule="nonzero" fill="rgb(100%, 100%, 100%)" fill-opacity="1" d="M 219.585938 201.832031 C 219.585938 202.078125 219.519531 202.261719 219.394531 202.390625 C 219.265625 202.519531 219.117188 202.582031 218.953125 202.582031 C 218.730469 202.582031 218.558594 202.519531 218.4375 202.390625 C 218.316406 202.261719 218.253906 202.078125 218.253906 201.832031 L 218.253906 194.597656 C 218.253906 194.410156 218.316406 194.253906 218.445312 194.125 C 218.574219 193.996094 218.730469 193.933594 218.917969 193.933594 C 219.117188 193.933594 219.277344 193.996094 219.402344 194.125 C 219.523438 194.253906 219.585938 194.410156 219.585938 194.597656 Z M 219.585938 195.597656 C 219.585938 195.785156 219.523438 195.945312 219.402344 196.070312 C 219.277344 196.199219 219.117188 196.261719 218.917969 196.261719 C 218.730469 196.261719 218.574219 196.199219 218.445312 196.070312 C 218.316406 195.945312 218.253906 195.785156 218.253906 195.597656 L 218.253906 188.511719 C 218.253906 188.101562 218.285156 187.769531 218.347656 187.515625 C 218.40625 187.257812 218.488281 187.058594 218.585938 186.90625 C 218.6875 186.757812 218.792969 186.65625 218.910156 186.601562 C 219.027344 186.542969 219.140625 186.515625 219.253906 186.515625 C 219.472656 186.515625 219.585938 186.628906 219.585938 186.847656 Z M 218.1875 194.53125 C 218.1875 193.589844 218.015625 192.707031 217.671875 191.878906 C 217.328125 191.054688 216.855469 190.332031 216.257812 189.71875 C 215.660156 189.101562 214.957031 188.613281 214.148438 188.253906 C 213.335938 187.894531 212.46875 187.714844 211.535156 187.714844 C 210.605469 187.714844 209.734375 187.894531 208.925781 188.253906 C 208.117188 188.613281 207.410156 189.101562 206.8125 189.71875 C 206.214844 190.332031 205.742188 191.054688 205.398438 191.878906 C 205.054688 192.707031 204.882812 193.589844 204.882812 194.53125 C 204.882812 195.476562 205.054688 196.359375 205.398438 197.183594 C 205.742188 198.011719 206.214844 198.730469 206.8125 199.347656 C 207.410156 199.960938 208.117188 200.449219 208.925781 200.8125 C 209.734375 201.171875 210.605469 201.351562 211.535156 201.351562 C 212.46875 201.351562 213.335938 201.171875 214.148438 200.8125 C 214.957031 200.449219 215.660156 199.960938 216.257812 199.347656 C 216.855469 198.730469 217.328125 198.011719 217.671875 197.183594 C 218.015625 196.359375 218.1875 195.476562 218.1875 194.53125 M 219.253906 194.53125 C 219.253906 195.640625 219.058594 196.683594 218.671875 197.660156 C 218.28125 198.636719 217.746094 199.488281 217.054688 200.21875 C 216.367188 200.953125 215.554688 201.527344 214.613281 201.949219 C 213.667969 202.371094 212.644531 202.582031 211.535156 202.582031 C 210.425781 202.582031 209.386719 202.371094 208.410156 201.949219 C 207.433594 201.527344 206.582031 200.953125 205.847656 200.21875 C 205.117188 199.488281 204.539062 198.636719 204.117188 197.660156 C 203.695312 196.683594 203.484375 195.640625 203.484375 194.53125 C 203.484375 193.425781 203.695312 192.382812 204.117188 191.40625 C 204.539062 190.429688 205.117188 189.578125 205.847656 188.84375 C 206.582031 188.113281 207.433594 187.535156 208.410156 187.117188 C 209.386719 186.695312 210.425781 186.484375 211.535156 186.484375 C 212.644531 186.484375 213.667969 186.695312 214.613281 187.117188 C 215.554688 187.535156 216.367188 188.113281 217.054688 188.84375 C 217.746094 189.578125 218.28125 190.429688 218.671875 191.40625 C 219.058594 192.382812 219.253906 193.425781 219.253906 194.53125 "/>
<path fill-rule="nonzero" fill="rgb(100%, 100%, 100%)" fill-opacity="1" d="M 72.324219 232.648438 C 71.5625 232.648438 70.773438 232.550781 69.957031 232.355469 C 69.140625 232.160156 68.386719 231.875 67.6875 231.492188 C 66.988281 231.113281 66.398438 230.648438 65.910156 230.101562 C 65.425781 229.554688 65.136719 228.929688 65.046875 228.222656 C 65.023438 227.957031 65.066406 227.707031 65.171875 227.476562 C 65.277344 227.25 65.429688 227.054688 65.625 226.898438 C 65.820312 226.742188 66.042969 226.636719 66.289062 226.574219 C 66.535156 226.511719 66.785156 226.519531 67.042969 226.597656 C 67.300781 226.664062 67.5625 226.839844 67.828125 227.125 C 68.097656 227.410156 68.421875 227.714844 68.800781 228.03125 C 69.183594 228.351562 69.648438 228.636719 70.195312 228.894531 C 70.742188 229.152344 71.429688 229.28125 72.253906 229.28125 C 72.714844 229.3125 73.148438 229.304688 73.554688 229.253906 C 73.960938 229.203125 74.324219 229.121094 74.636719 229.003906 C 74.949219 228.886719 75.195312 228.730469 75.375 228.542969 C 75.550781 228.351562 75.640625 228.128906 75.640625 227.871094 C 75.640625 227.636719 75.503906 227.425781 75.222656 227.234375 C 74.945312 227.046875 74.574219 226.855469 74.117188 226.664062 C 73.65625 226.476562 73.136719 226.28125 72.558594 226.078125 C 71.976562 225.878906 71.378906 225.652344 70.761719 225.398438 C 70.148438 225.148438 69.550781 224.867188 68.96875 224.554688 C 68.390625 224.242188 67.867188 223.878906 67.410156 223.472656 C 66.953125 223.0625 66.582031 222.597656 66.304688 222.070312 C 66.023438 221.546875 65.886719 220.949219 65.886719 220.277344 C 65.886719 219.773438 66.027344 219.265625 66.3125 218.753906 C 66.597656 218.238281 67.019531 217.777344 67.578125 217.371094 C 68.136719 216.960938 68.828125 216.628906 69.648438 216.363281 C 70.46875 216.101562 71.410156 215.96875 72.472656 215.96875 C 73.222656 215.96875 73.953125 216.039062 74.660156 216.171875 C 75.371094 216.304688 76.019531 216.507812 76.605469 216.78125 C 77.191406 217.058594 77.695312 217.402344 78.113281 217.824219 C 78.535156 218.242188 78.839844 218.730469 79.027344 219.289062 C 79.09375 219.613281 79.0625 219.902344 78.9375 220.152344 C 78.808594 220.402344 78.632812 220.609375 78.414062 220.765625 C 78.199219 220.921875 77.953125 221.023438 77.679688 221.074219 C 77.402344 221.125 77.148438 221.117188 76.914062 221.046875 C 76.671875 220.960938 76.414062 220.828125 76.152344 220.648438 C 75.890625 220.46875 75.605469 220.285156 75.296875 220.09375 C 74.992188 219.902344 74.65625 219.726562 74.292969 219.566406 C 73.929688 219.402344 73.523438 219.296875 73.078125 219.238281 C 72.125 219.128906 71.371094 219.175781 70.8125 219.382812 C 70.253906 219.589844 69.976562 219.925781 69.976562 220.394531 C 69.976562 220.796875 70.214844 221.160156 70.695312 221.476562 C 71.175781 221.796875 71.78125 222.105469 72.507812 222.40625 C 73.234375 222.710938 74.015625 223.023438 74.855469 223.355469 C 75.691406 223.683594 76.472656 224.0625 77.203125 224.484375 C 77.925781 224.910156 78.53125 225.40625 79.011719 225.96875 C 79.492188 226.535156 79.730469 227.199219 79.730469 227.972656 C 79.730469 228.820312 79.519531 229.542969 79.09375 230.136719 C 78.671875 230.726562 78.113281 231.210938 77.417969 231.585938 C 76.726562 231.960938 75.9375 232.230469 75.046875 232.398438 C 74.15625 232.566406 73.25 232.648438 72.324219 232.648438 "/>
<path fill-rule="nonzero" fill="rgb(100%, 100%, 100%)" fill-opacity="1" d="M 93.144531 224.367188 C 93.144531 224.984375 93.25 225.5625 93.46875 226.101562 C 93.6875 226.644531 93.988281 227.117188 94.375 227.519531 C 94.761719 227.921875 95.214844 228.242188 95.742188 228.476562 C 96.265625 228.710938 96.832031 228.828125 97.433594 228.828125 C 98.039062 228.828125 98.597656 228.710938 99.121094 228.476562 C 99.636719 228.242188 100.089844 227.921875 100.476562 227.519531 C 100.863281 227.117188 101.167969 226.644531 101.390625 226.101562 C 101.613281 225.5625 101.726562 224.984375 101.726562 224.367188 C 101.726562 223.765625 101.613281 223.191406 101.390625 222.652344 C 101.167969 222.109375 100.863281 221.636719 100.476562 221.234375 C 100.089844 220.832031 99.636719 220.511719 99.121094 220.277344 C 98.597656 220.042969 98.039062 219.925781 97.433594 219.925781 C 96.832031 219.925781 96.265625 220.042969 95.742188 220.277344 C 95.214844 220.511719 94.761719 220.832031 94.375 221.234375 C 93.988281 221.636719 93.6875 222.109375 93.46875 222.652344 C 93.25 223.191406 93.144531 223.765625 93.144531 224.367188 M 89.152344 224.367188 C 89.152344 223.230469 89.371094 222.160156 89.808594 221.160156 C 90.242188 220.160156 90.839844 219.28125 91.589844 218.535156 C 92.347656 217.785156 93.222656 217.195312 94.222656 216.757812 C 95.222656 216.320312 96.292969 216.105469 97.433594 216.105469 C 98.574219 216.105469 99.644531 216.320312 100.644531 216.757812 C 101.644531 217.195312 102.523438 217.785156 103.277344 218.535156 C 104.03125 219.28125 104.625 220.160156 105.0625 221.160156 C 105.496094 222.160156 105.714844 223.230469 105.714844 224.367188 C 105.714844 225.507812 105.496094 226.582031 105.0625 227.585938 C 104.625 228.59375 104.03125 229.46875 103.277344 230.21875 C 102.523438 230.96875 101.644531 231.558594 100.644531 231.996094 C 99.644531 232.429688 98.574219 232.648438 97.433594 232.648438 C 96.292969 232.648438 95.222656 232.429688 94.222656 231.996094 C 93.222656 231.558594 92.347656 230.96875 91.589844 230.21875 C 90.839844 229.46875 90.242188 228.59375 89.808594 227.585938 C 89.371094 226.582031 89.152344 225.507812 89.152344 224.367188 "/>
<path fill-rule="nonzero" fill="rgb(100%, 100%, 100%)" fill-opacity="1" d="M 129.300781 218.402344 C 129.726562 218.859375 129.9375 219.328125 129.9375 219.808594 C 129.9375 220.078125 129.882812 220.332031 129.769531 220.570312 C 129.660156 220.8125 129.507812 221.011719 129.316406 221.175781 C 129.128906 221.335938 128.902344 221.453125 128.648438 221.527344 C 128.390625 221.601562 128.121094 221.609375 127.84375 221.554688 C 127.273438 221.273438 126.695312 220.996094 126.117188 220.722656 C 125.535156 220.449219 124.910156 220.25 124.238281 220.128906 C 123.601562 220.050781 122.976562 220.089844 122.359375 220.246094 C 121.746094 220.402344 121.199219 220.664062 120.71875 221.03125 C 120.238281 221.402344 119.851562 221.867188 119.5625 222.433594 C 119.269531 222.996094 119.125 223.648438 119.125 224.386719 C 119.125 225.101562 119.261719 225.738281 119.535156 226.304688 C 119.808594 226.867188 120.179688 227.339844 120.652344 227.714844 C 121.121094 228.085938 121.664062 228.359375 122.277344 228.527344 C 122.890625 228.695312 123.546875 228.734375 124.238281 228.644531 C 124.773438 228.585938 125.296875 228.453125 125.804688 228.242188 C 126.316406 228.027344 126.765625 227.742188 127.15625 227.386719 C 127.414062 227.25 127.699219 227.167969 128.019531 227.132812 C 128.335938 227.101562 128.640625 227.144531 128.929688 227.269531 C 129.246094 227.390625 129.496094 227.601562 129.6875 227.898438 C 129.875 228.195312 129.972656 228.535156 129.972656 228.929688 C 129.972656 229.375 129.796875 229.824219 129.453125 230.269531 C 129.105469 230.714844 128.632812 231.117188 128.035156 231.46875 C 127.4375 231.820312 126.738281 232.109375 125.941406 232.332031 C 125.140625 232.554688 124.292969 232.667969 123.398438 232.667969 C 122.261719 232.667969 121.191406 232.449219 120.191406 232.011719 C 119.191406 231.574219 118.316406 230.984375 117.566406 230.234375 C 116.816406 229.488281 116.226562 228.609375 115.789062 227.605469 C 115.355469 226.597656 115.136719 225.527344 115.136719 224.386719 C 115.136719 223.246094 115.355469 222.175781 115.789062 221.175781 C 116.226562 220.175781 116.816406 219.300781 117.566406 218.550781 C 118.316406 217.804688 119.191406 217.210938 120.191406 216.773438 C 121.191406 216.339844 122.261719 216.121094 123.398438 216.121094 C 123.960938 216.121094 124.519531 216.171875 125.078125 216.273438 C 125.636719 216.371094 126.175781 216.519531 126.695312 216.714844 C 127.214844 216.910156 127.695312 217.148438 128.144531 217.429688 C 128.589844 217.707031 128.976562 218.03125 129.300781 218.402344 "/>
<path fill-rule="nonzero" fill="rgb(100%, 100%, 100%)" fill-opacity="1" d="M 140.265625 218.046875 C 140.265625 217.78125 140.3125 217.527344 140.414062 217.285156 C 140.515625 217.046875 140.652344 216.835938 140.828125 216.65625 C 141 216.480469 141.207031 216.339844 141.445312 216.238281 C 141.6875 216.136719 141.945312 216.085938 142.226562 216.085938 C 142.492188 216.085938 142.746094 216.136719 142.988281 216.238281 C 143.230469 216.339844 143.4375 216.480469 143.617188 216.65625 C 143.796875 216.835938 143.9375 217.046875 144.042969 217.285156 C 144.152344 217.527344 144.203125 217.78125 144.203125 218.046875 L 144.203125 230.671875 C 144.203125 230.953125 144.152344 231.210938 144.042969 231.453125 C 143.9375 231.691406 143.796875 231.902344 143.617188 232.082031 C 143.4375 232.257812 143.230469 232.398438 142.988281 232.5 C 142.746094 232.597656 142.492188 232.648438 142.226562 232.648438 C 141.945312 232.648438 141.6875 232.597656 141.445312 232.5 C 141.207031 232.398438 141 232.257812 140.828125 232.082031 C 140.652344 231.902344 140.515625 231.691406 140.414062 231.453125 C 140.3125 231.210938 140.265625 230.953125 140.265625 230.671875 Z M 140.0625 211.796875 C 140.0625 211.507812 140.117188 211.230469 140.222656 210.976562 C 140.328125 210.71875 140.476562 210.496094 140.667969 210.3125 C 140.855469 210.128906 141.078125 209.984375 141.335938 209.875 C 141.59375 209.769531 141.875 209.71875 142.175781 209.71875 C 142.464844 209.71875 142.738281 209.769531 142.996094 209.875 C 143.253906 209.984375 143.480469 210.128906 143.675781 210.3125 C 143.871094 210.496094 144.023438 210.71875 144.136719 210.976562 C 144.246094 211.230469 144.304688 211.507812 144.304688 211.796875 C 144.304688 212.097656 144.246094 212.375 144.136719 212.625 C 144.023438 212.878906 143.871094 213.09375 143.675781 213.28125 C 143.480469 213.464844 143.253906 213.609375 142.996094 213.714844 C 142.738281 213.820312 142.464844 213.875 142.175781 213.875 C 141.875 213.875 141.59375 213.820312 141.335938 213.714844 C 141.078125 213.609375 140.855469 213.464844 140.667969 213.28125 C 140.476562 213.09375 140.328125 212.878906 140.222656 212.625 C 140.117188 212.375 140.0625 212.097656 140.0625 211.796875 "/>
<path fill-rule="nonzero" fill="rgb(100%, 100%, 100%)" fill-opacity="1" d="M 171.09375 231.394531 C 171.09375 231.804688 170.988281 232.121094 170.773438 232.339844 C 170.5625 232.558594 170.261719 232.667969 169.867188 232.667969 C 169.453125 232.667969 169.117188 232.546875 168.855469 232.304688 C 168.59375 232.066406 168.398438 231.75 168.277344 231.359375 L 167.554688 228.492188 L 167.136719 228.273438 L 167.136719 224.417969 C 167.136719 224.140625 167.1875 223.882812 167.296875 223.648438 C 167.402344 223.414062 167.542969 223.207031 167.722656 223.027344 C 167.902344 222.847656 168.109375 222.710938 168.351562 222.609375 C 168.59375 222.507812 168.84375 222.457031 169.113281 222.457031 C 169.394531 222.457031 169.652344 222.507812 169.894531 222.609375 C 170.132812 222.710938 170.34375 222.847656 170.523438 223.027344 C 170.703125 223.207031 170.839844 223.414062 170.941406 223.648438 C 171.042969 223.882812 171.09375 224.140625 171.09375 224.417969 Z M 171.09375 224.90625 C 171.09375 225.183594 171.042969 225.445312 170.941406 225.683594 C 170.839844 225.925781 170.703125 226.132812 170.523438 226.3125 C 170.34375 226.492188 170.132812 226.632812 169.894531 226.730469 C 169.652344 226.832031 169.394531 226.882812 169.113281 226.882812 C 168.84375 226.882812 168.59375 226.832031 168.351562 226.730469 C 168.109375 226.632812 167.902344 226.492188 167.722656 226.3125 C 167.542969 226.132812 167.402344 225.925781 167.296875 225.683594 C 167.1875 225.445312 167.136719 225.183594 167.136719 224.90625 L 167.136719 220.511719 L 167.554688 220.277344 L 168.277344 218.066406 C 168.410156 217.359375 168.628906 216.859375 168.9375 216.566406 C 169.246094 216.269531 169.605469 216.121094 170.019531 216.121094 C 170.734375 216.121094 171.09375 216.480469 171.09375 217.195312 Z M 167.101562 224.386719 C 167.101562 223.78125 166.988281 223.210938 166.769531 222.667969 C 166.542969 222.125 166.238281 221.652344 165.851562 221.25 C 165.46875 220.847656 165.015625 220.527344 164.496094 220.296875 C 163.976562 220.058594 163.414062 219.941406 162.8125 219.941406 C 162.207031 219.941406 161.644531 220.058594 161.117188 220.296875 C 160.59375 220.527344 160.136719 220.847656 159.75 221.25 C 159.367188 221.652344 159.0625 222.125 158.847656 222.667969 C 158.628906 223.210938 158.519531 223.78125 158.519531 224.386719 C 158.519531 225 158.628906 225.578125 158.847656 226.121094 C 159.0625 226.664062 159.367188 227.132812 159.75 227.535156 C 160.136719 227.9375 160.59375 228.257812 161.117188 228.492188 C 161.644531 228.726562 162.207031 228.84375 162.8125 228.84375 C 163.414062 228.84375 163.976562 228.726562 164.496094 228.492188 C 165.015625 228.257812 165.46875 227.9375 165.851562 227.535156 C 166.238281 227.132812 166.542969 226.664062 166.769531 226.121094 C 166.988281 225.578125 167.101562 225 167.101562 224.386719 M 170.085938 224.386719 C 170.085938 225.523438 169.921875 226.597656 169.59375 227.605469 C 169.261719 228.609375 168.785156 229.488281 168.15625 230.234375 C 167.53125 230.984375 166.769531 231.578125 165.871094 232.011719 C 164.96875 232.449219 163.949219 232.667969 162.8125 232.667969 C 161.671875 232.667969 160.601562 232.449219 159.601562 232.011719 C 158.601562 231.578125 157.722656 230.984375 156.96875 230.234375 C 156.214844 229.488281 155.621094 228.609375 155.183594 227.605469 C 154.75 226.597656 154.53125 225.523438 154.53125 224.386719 C 154.53125 223.246094 154.75 222.175781 155.183594 221.175781 C 155.621094 220.175781 156.214844 219.300781 156.96875 218.550781 C 157.722656 217.804688 158.601562 217.210938 159.601562 216.773438 C 160.601562 216.339844 161.671875 216.121094 162.8125 216.121094 C 163.949219 216.121094 164.96875 216.339844 165.871094 216.773438 C 166.769531 217.210938 167.53125 217.804688 168.15625 218.550781 C 168.785156 219.300781 169.261719 220.175781 169.59375 221.175781 C 169.921875 222.175781 170.085938 223.246094 170.085938 224.386719 "/>
<path fill-rule="nonzero" fill="rgb(100%, 100%, 100%)" fill-opacity="1" d="M 182.390625 212.953125 C 182.390625 212.683594 182.441406 212.429688 182.542969 212.191406 C 182.640625 211.949219 182.78125 211.738281 182.960938 211.5625 C 183.140625 211.382812 183.347656 211.242188 183.589844 211.140625 C 183.828125 211.039062 184.089844 210.992188 184.367188 210.992188 C 184.636719 210.992188 184.890625 211.039062 185.132812 211.140625 C 185.371094 211.242188 185.582031 211.382812 185.761719 211.5625 C 185.9375 211.738281 186.082031 211.949219 186.1875 212.191406 C 186.292969 212.429688 186.347656 212.683594 186.347656 212.953125 L 186.347656 230.671875 C 186.347656 230.953125 186.292969 231.210938 186.1875 231.453125 C 186.082031 231.691406 185.9375 231.902344 185.761719 232.082031 C 185.582031 232.257812 185.371094 232.398438 185.132812 232.5 C 184.890625 232.597656 184.636719 232.648438 184.367188 232.648438 C 184.089844 232.648438 183.828125 232.597656 183.589844 232.5 C 183.347656 232.398438 183.140625 232.257812 182.960938 232.082031 C 182.78125 231.902344 182.640625 231.691406 182.542969 231.453125 C 182.441406 231.210938 182.390625 230.953125 182.390625 230.671875 Z M 182.390625 212.953125 "/>
<path fill-rule="nonzero" fill="rgb(100%, 100%, 100%)" fill-opacity="1" d="M 164.132812 101.226562 L 139.21875 101.226562 C 133.894531 101.226562 129.578125 105.542969 129.578125 110.863281 C 129.578125 116.1875 133.894531 120.503906 139.21875 120.503906 L 148.257812 120.503906 C 147.699219 120.96875 147.136719 121.449219 146.582031 121.902344 C 144.226562 123.820312 141.738281 125.519531 139.113281 126.996094 C 136.488281 128.480469 133.675781 129.640625 130.683594 130.480469 C 127.6875 131.324219 124.375 131.742188 120.742188 131.742188 C 115.089844 131.742188 109.773438 130.648438 104.796875 128.460938 C 99.8125 126.277344 95.457031 123.296875 91.722656 119.53125 C 87.988281 115.761719 85.042969 111.371094 82.890625 106.355469 C 80.738281 101.34375 79.664062 96.011719 79.664062 90.359375 C 79.664062 84.707031 80.738281 79.375 82.890625 74.359375 C 85.042969 69.351562 87.972656 64.941406 91.671875 61.140625 C 95.375 57.335938 99.730469 54.34375 104.746094 52.15625 C 109.757812 49.96875 115.089844 48.875 120.742188 48.875 C 126.863281 48.875 132.351562 50.085938 137.195312 52.507812 C 142.039062 54.929688 146.480469 58.195312 150.519531 62.300781 C 152 63.511719 153.496094 64.367188 155.007812 64.875 C 156.523438 65.378906 157.96875 65.597656 159.347656 65.53125 C 160.730469 65.460938 162.023438 65.160156 163.234375 64.621094 C 164.445312 64.082031 165.523438 63.375 166.464844 62.5 C 167.808594 61.359375 168.800781 60.011719 169.441406 58.464844 C 170.082031 56.917969 170.367188 55.402344 170.300781 53.921875 C 170.164062 50.625 168.988281 47.765625 166.769531 45.34375 C 163.402344 41.707031 159.988281 38.613281 156.523438 36.054688 C 153.058594 33.5 149.457031 31.429688 145.722656 29.847656 C 141.988281 28.269531 138.050781 27.125 133.914062 26.417969 C 129.777344 25.710938 125.386719 25.355469 120.742188 25.355469 C 114.753906 25.355469 109 26.132812 103.480469 27.679688 C 97.964844 29.226562 92.800781 31.414062 87.988281 34.238281 C 83.179688 37.066406 78.804688 40.449219 74.867188 44.382812 C 70.929688 48.320312 67.550781 52.695312 64.722656 57.503906 C 61.898438 62.316406 59.710938 67.480469 58.164062 73 C 56.613281 78.515625 55.839844 84.238281 55.839844 90.15625 C 55.839844 99.105469 57.539062 107.519531 60.9375 115.390625 C 64.335938 123.261719 68.976562 130.144531 74.867188 136.03125 C 80.753906 141.921875 87.636719 146.566406 95.507812 149.960938 C 103.382812 153.359375 111.792969 155.058594 120.742188 155.058594 C 126.058594 155.058594 130.902344 154.636719 135.277344 153.796875 C 139.648438 152.957031 143.738281 151.660156 147.539062 149.910156 C 151.339844 148.160156 154.941406 145.925781 158.339844 143.199219 C 160.277344 141.644531 162.207031 139.902344 164.132812 138.011719 L 164.132812 145.417969 C 164.132812 150.742188 168.449219 155.058594 173.773438 155.058594 C 178.789062 155.058594 182.90625 151.226562 183.367188 146.328125 L 183.367188 101.226562 Z M 164.132812 101.226562 "/>
<path fill-rule="nonzero" fill="rgb(100%, 100%, 100%)" fill-opacity="1" d="M 207.03125 77.503906 L 195.167969 77.503906 L 195.167969 89.359375 L 207.03125 89.359375 Z M 207.03125 77.503906 "/>
<path fill-rule="nonzero" fill="rgb(100%, 100%, 100%)" fill-opacity="1" d="M 183.320312 77.503906 L 171.457031 77.503906 L 171.457031 89.371094 L 183.320312 89.371094 Z M 183.320312 77.503906 "/>
<path fill-rule="nonzero" fill="rgb(100%, 100%, 100%)" fill-opacity="1" d="M 195.167969 113.082031 L 207.03125 113.082031 L 207.03125 101.210938 L 195.167969 101.210938 Z M 195.167969 113.082031 "/>
</svg>
